<!DOCTYPE svg PUBLIC "-//W3C//DTD SVG 1.1//EN" "http://www.w3.org/Graphics/SVG/1.1/DTD/svg11.dtd">
<!-- Uploaded to: SVG Repo, www.svgrepo.com, Transformed by: SVG Repo Mixer Tools -->
<svg width="800px" height="800px" viewBox="-1.6 -1.6 19.20 19.20" version="1.1" xmlns="http://www.w3.org/2000/svg" xmlns:xlink="http://www.w3.org/1999/xlink" fill="#041425" stroke="#041425" stroke-width="0.00016">
<g id="SVGRepo_bgCarrier" stroke-width="0">
<path transform="translate(-1.6, -1.6), scale(0.6)" d="M16,28.4427446777768C17.927412871231628,28.150109344885124,19.948629657255896,28.68397083482208,21.753978786176376,27.948260064918564C23.59526569669433,27.19790403192208,24.83292760716047,25.547759144803166,26.32601008736632,24.23471825800591C28.076107180356964,22.695654562981563,30.61817714345131,21.71568015569528,31.35526013748916,19.504737923945097C32.085640649557185,17.313900348745822,30.96096906450688,14.93233794302311,30.147829607979048,12.77085021519503C29.39436147410469,10.767980828394826,28.450488819025352,8.748259578408124,26.797495235769514,7.389284882889276C25.226474826878036,6.09770274763258,23.134548623556896,5.678054644291908,21.126694414558226,5.354309354481959C19.41536129498876,5.078374959308576,17.71550507815502,5.89698564640705,16,5.6483027893392475C13.931321539544276,5.348423251556692,12.13355932837879,3.256984406703236,10.103797522274148,3.756409396479439C8.165606114016441,4.2333033952443,6.827512456736166,6.23834841231058,6.080062344052706,8.08911370000954C5.366436154154526,9.856127388608378,6.008028218340334,11.82993721016881,6.074058305011642,13.734468580941801C6.126271112830275,15.240462824773973,6.4192043187995536,16.677416037445795,6.430061536589884,18.184276004588657C6.443876900324403,20.10169342635245,5.682558676584829,21.997137570172686,6.146996762989932,23.85750788208771C6.700903402540112,26.07625672710157,7.264890591791618,28.868464174262908,9.33822427604652,29.833319829955563C11.420994004606076,30.802566684606617,13.72877616707294,28.78758015767863,16,28.4427446777768" fill="#FAF0CA" strokewidth="0"/>
</g>
<g id="SVGRepo_tracerCarrier" stroke-linecap="round" stroke-linejoin="round"/>
<g id="SVGRepo_iconCarrier"> <rect width="16" height="16" id="icon-bound" fill="none"/> <path d="M8,9L0,5l8-4l8,4L8,9z M14.397,7.2L16,8l-8,4L0,8l1.603-0.8L8,10.397L14.397,7.2z M14.397,10.2L16,11l-8,4l-8-4l1.603-0.8 L8,13.397L14.397,10.2z"/> </g>
</svg>