<!DOCTYPE svg PUBLIC "-//W3C//DTD SVG 1.1//EN" "http://www.w3.org/Graphics/SVG/1.1/DTD/svg11.dtd">
<!-- Uploaded to: SVG Repo, www.svgrepo.com, Transformed by: SVG Repo Mixer Tools -->
<svg fill="#041425" width="800px" height="800px" viewBox="-1.6 -1.6 19.20 19.20" xmlns="http://www.w3.org/2000/svg" stroke="#041425" stroke-width="0.00016">
<g id="SVGRepo_bgCarrier" stroke-width="0">
<path transform="translate(-1.6, -1.6), scale(0.6)" d="M16,26.815835941582918C18.30803568758301,27.12843517753106,20.55819958033972,29.69608524890966,22.63778941866989,28.647251076227416C24.703181335980176,27.605577577478186,24.050755307874677,24.333846376422503,25.053963491523696,22.249499766487688C25.880578512454345,20.532057420342724,27.345211661626735,19.24144904416355,28.022383711135404,17.459781673265063C28.822604422193166,15.354368238904847,30.16764960783913,13.035757659602645,29.354191818264603,10.935423081357836C28.539788541037826,8.832647269609854,25.511515891640368,8.649155084360963,23.971923024102214,7.001559073605975C22.220389511820454,5.127154685026543,22.299091220258365,1.14271923027574,19.774995389814034,0.6842416459758578C17.174684519992205,0.21192033723427517,15.77721635356098,4.130985542390736,13.304499559653983,5.06392481990842C11.23183898091713,5.84592560043892,8.448738730714945,4.135875326749996,6.776277629080951,5.588569705799253C5.108335778224339,7.037338678036117,5.740824656238128,9.788512908697568,5.359768833049076,11.964692591621052C5.042145414054561,13.778614828661977,4.809316214653123,15.531449475016704,4.71323172276796,17.3704617883916C4.600284161618302,19.532225374217024,3.6622757299899416,21.894513973390776,4.742957397639909,23.77017547957352C5.817363684531519,25.63494525836101,8.165815206695132,26.406476212955862,10.243264727956555,26.968542653692236C12.123548926438428,27.477264832593526,14.069735983448094,26.55440191783773,16,26.815835941582918" fill="#FAF0CA" strokewidth="0"/>
</g>
<g id="SVGRepo_tracerCarrier" stroke-linecap="round" stroke-linejoin="round"/>
<g id="SVGRepo_iconCarrier"> <path d="M7.654 8L5.817 6.164A3.49 3.49 0 0 1 3.544 7h-.041A3.504 3.504 0 0 1 0 3.5C0 1.567 1.564 0 3.503 0h.04A3.504 3.504 0 0 1 6.92 4.438l2.148 2.148 5.518-5.518L16 2.482 10.482 8 16 13.518l-1.414 1.414-5.518-5.518-2.149 2.149A3.498 3.498 0 0 1 3.544 16h-.041A3.504 3.504 0 0 1 0 12.5C0 10.567 1.564 9 3.503 9h.04a3.49 3.49 0 0 1 2.273.838L7.654 8zm-4.13-6a1.5 1.5 0 0 0 0 3c.839 0 1.51-.672 1.51-1.5 0-.834-.677-1.5-1.51-1.5zm0 9a1.5 1.5 0 0 0 0 3c.839 0 1.51-.672 1.51-1.5 0-.834-.677-1.5-1.51-1.5z" fill-rule="evenodd"/> </g>
</svg>