<!DOCTYPE svg PUBLIC "-//W3C//DTD SVG 1.1//EN" "http://www.w3.org/Graphics/SVG/1.1/DTD/svg11.dtd">
<!-- Uploaded to: SVG Repo, www.svgrepo.com, Transformed by: SVG Repo Mixer Tools -->
<svg width="800px" height="800px" viewBox="-1.6 -1.6 19.20 19.20" version="1.1" xmlns="http://www.w3.org/2000/svg" xmlns:xlink="http://www.w3.org/1999/xlink" fill="#041425" stroke="#041425" stroke-width="0.00016">
<g id="SVGRepo_bgCarrier" stroke-width="0">
<path transform="translate(-1.6, -1.6), scale(0.6)" d="M16,31.53953472773234C18.637202464054393,32.341704200550815,21.55119140924561,31.12761977572495,23.92309634014964,29.7232054144022C26.282877672535587,28.32596948407299,28.00899225403376,26.09771975692244,29.287851725520103,23.671744770680867C30.53653314565078,21.303017042136243,31.947530343592927,18.558446323212713,31.157322299977142,16C30.360949522110943,13.421594196744035,26.88933137943031,12.80600574583494,25.266006487312357,10.650268660237394C23.916732465737297,8.858464652878315,24.205252020402767,6.150381062260897,22.577904252335433,4.60673562763167C20.824187936500003,2.9432213882695657,18.417112741312412,1.880002664162142,16,1.8608575140436496C13.577307813285131,1.841668170984554,11.548662590633906,3.459549477957747,9.361657847339911,4.502054113566567C6.9905198880030905,5.632331641247438,4.123160778770076,6.125459013905036,2.585657753722714,8.25522589311003C1.018898577591548,10.425518729387129,0.6727456156870688,13.351596705587795,1.0611594431102276,15.999999999999996C1.4287696917124737,18.50655389875501,2.911445141158649,20.721728957371084,4.680011772958196,22.53559825010597C6.2280089812139,24.12324813041458,8.708636084146839,24.242882546263797,10.444031868750844,25.623219088557033C12.598014835977462,27.336500535658487,13.366850480963418,30.738598057026188,16,31.53953472773234" fill="#FAF0CA" strokewidth="0"/>
</g>
<g id="SVGRepo_tracerCarrier" stroke-linecap="round" stroke-linejoin="round" stroke="#CCCCCC" stroke-width="0.16"/>
<g id="SVGRepo_iconCarrier"> <rect width="16" height="16" id="icon-bound" fill="none"/> <path d="M6.516,2.612L9.325,3.55l0.734,2.934l0.188,0.75l0.644,0.428l2.238,1.494L13.734,14H2.441l0.331-1.65l1.125-0.562 l0.875-0.438l0.191-0.959L6.516,2.612 M5,0L3,10l-2,1l-1,5h16l-1-8l-3-2l-1-4L5,0L5,0z"/> </g>
</svg>